<svg width="23" height="25" viewBox="0 0 23 25" fill="none" xmlns="http://www.w3.org/2000/svg">
<path d="M14.1999 12.021L22.4336 3.43185C22.7942 3.05484 22.9967 2.5435 22.9967 2.01033C22.9967 1.47716 22.7942 0.965822 22.4336 0.588812C22.073 0.211802 21.584 0 21.0741 0C20.5642 0 20.0751 0.211802 19.7146 0.588812L11.5 9.19801L3.28544 0.588812C2.92487 0.211802 2.43584 -3.97244e-09 1.92592 0C1.416 3.97245e-09 0.926966 0.211802 0.566399 0.588812C0.205832 0.965822 0.00326783 1.47716 0.00326783 2.01033C0.00326782 2.5435 0.205832 3.05484 0.566399 3.43185L8.80011 12.021L0.566399 20.6102C0.386927 20.7963 0.244476 21.0178 0.147263 21.2617C0.0500504 21.5057 0 21.7674 0 22.0317C0 22.296 0.0500504 22.5577 0.147263 22.8017C0.244476 23.0457 0.386927 23.2671 0.566399 23.4532C0.744406 23.6409 0.956187 23.7898 1.18953 23.8915C1.42286 23.9931 1.67314 24.0455 1.92592 24.0455C2.1787 24.0455 2.42897 23.9931 2.66231 23.8915C2.89565 23.7898 3.10743 23.6409 3.28544 23.4532L11.5 14.844L19.7146 23.4532C19.8926 23.6409 20.1043 23.7898 20.3377 23.8915C20.571 23.9931 20.8213 24.0455 21.0741 24.0455C21.3269 24.0455 21.5771 23.9931 21.8105 23.8915C22.0438 23.7898 22.2556 23.6409 22.4336 23.4532C22.6131 23.2671 22.7555 23.0457 22.8527 22.8017C22.95 22.5577 23 22.296 23 22.0317C23 21.7674 22.95 21.5057 22.8527 21.2617C22.7555 21.0178 22.6131 20.7963 22.4336 20.6102L14.1999 12.021Z" fill="black"/>
</svg>
